<?xml version="1.0" encoding="utf-8"?>
<!-- Generator: Adobe Illustrator 22.1.0, SVG Export Plug-In . SVG Version: 6.00 Build 0)  -->
<svg version="1.1" id="Слой_1" xmlns="http://www.w3.org/2000/svg" xmlns:xlink="http://www.w3.org/1999/xlink" x="0px" y="0px"
	 viewBox="0 0 13.8 13.9" style="enable-background:new 0 0 13.8 13.9;" xml:space="preserve">
<style type="text/css">
	.st0{fill:none;}
	.st1{fill:#FFFFFF;}
</style>
<path class="st0" d="M-5.1-5h24v24h-24V-5z"/>
<path class="st1" d="M13.2,0.7c-0.4-0.4-1-0.4-1.4,0L6.9,5.6L2,0.7c-0.4-0.4-1-0.4-1.4,0s-0.4,1,0,1.4L5.5,7l-4.9,4.9
	c-0.4,0.4-0.4,1,0,1.4s1,0.4,1.4,0l4.9-4.9l4.9,4.9c0.4,0.4,1,0.4,1.4,0s0.4-1,0-1.4L8.3,7l4.9-4.9C13.6,1.7,13.6,1.1,13.2,0.7z"/>
</svg>
