<svg xmlns="http://www.w3.org/2000/svg" width="158" height="29" viewBox="179 -18.9 373.4 67.9"><path fill="#00669c" d="M385-3.9h13.3V49h16V-3.9h13.3V-17H385v13.1zM331.8 49h41.4V36h-25.4V22.4h25.4V9.3h-25.4V-3.9h25.4V-17h-41.4v66zm163.4-66.7L536.9 16l-41.7 32.7v.1l-31.7-67.1h-1.3L430.4 49h15.7l4.2-8.9h24.9l4.2 8.9h15.8v-.1l57.1-32.7V16l-57.1-33.7zm-39.7 44.8l7.2-13.4.1.1 7.3 13.3h-14.6zM194.5 16l41.7-33.7L179 16v.2l57.2 32.7v-.1L194.5 16zm107.8-34.3L278 24.2l-24.1-42.5h-2.3l-15.4 67.2v.1h16l6.9-29.9L276.9 49h2.2l18-29.9 6.7 29.9h16.1l-15.5-67.3h-2.1z"></path></svg>